<svg version="1.2" xmlns="http://www.w3.org/2000/svg" viewBox="0 0 100 30" width="100" height="30"><defs><linearGradient id="P" gradientUnits="userSpaceOnUse"/><linearGradient id="g1" x1="-88.1" y1="-38.6" x2="-88.1" y2="-37.7" href="#P"><stop stop-color="#6ebf61"/><stop offset=".2" stop-color="#50a557"/><stop offset=".5" stop-color="#2a904f"/><stop offset=".8" stop-color="#50a557"/><stop offset="1" stop-color="#6ebf63"/></linearGradient></defs><style>.s0{fill:#272525}.s1{fill:#fefefe}.s2{fill:url(#g1)}</style><path fill-rule="evenodd" class="s0" d="m99.7 15.5q0.2 0.7 0.2 1.5q0 0.7-0.2 1.4q-0.2 0.7-0.6 1.2q-0.1 0.2-0.2 0.3q-0.1 0.1-0.3 0.2q-0.1 0.1-0.2 0.2q-0.2 0.1-0.3 0.2q-0.6 0.3-1.4 0.3q-0.7 0-1.3-0.3q-0.1-0.1-0.2-0.1q-0.2-0.1-0.3-0.2q-0.1-0.1-0.2-0.3q-0.1-0.1-0.2-0.2v3.5h-2v-10h1.9v1q0.4-0.6 0.9-0.9q0.6-0.3 1.3-0.3q0.8 0 1.5 0.4q0.6 0.3 1 0.8q0.4 0.6 0.6 1.3zm-1.8 1.5q0-0.5-0.1-0.9q-0.1-0.4-0.3-0.8q-0.1-0.1-0.1-0.1q-0.1-0.1-0.2-0.2q0-0.1-0.1-0.1q-0.1-0.1-0.2-0.1q-0.3-0.2-0.8-0.2q-0.5 0-0.8 0.2q-0.3 0.2-0.5 0.5q-0.2 0.3-0.3 0.8q-0.1 0.4-0.1 0.9q0 0.1 0 0.2q0 0.1 0 0.2q0 0.1 0 0.2q0.1 0.1 0.1 0.2q0.1 0.4 0.3 0.8q0 0 0.1 0.1q0 0.1 0.1 0.2q0.1 0 0.2 0.1q0 0 0.1 0.1q0.4 0.2 0.8 0.2q0.5 0 0.9-0.2q0.3-0.2 0.5-0.5q0.2-0.4 0.3-0.8q0.1-0.4 0.1-0.8zm-6.8-2.8q0.4 0.6 0.6 1.3q0.2 0.7 0.2 1.5q0 0.2 0 0.4q0 0.1-0.1 0.3q0 0.2 0 0.4q-0.1 0.2-0.1 0.3q-0.2 0.7-0.6 1.2q-0.1 0.2-0.2 0.3q-0.1 0.1-0.3 0.2q-0.1 0.1-0.2 0.2q-0.2 0.1-0.3 0.2q-0.6 0.3-1.4 0.3q-0.7 0-1.3-0.3q-0.1 0-0.2-0.1q-0.2-0.1-0.3-0.2q-0.1-0.1-0.2-0.2q-0.1-0.2-0.2-0.3v3.5h-2.1v-10h2v1q0.3-0.6 0.9-0.9q0.6-0.3 1.3-0.3q0.8 0 1.4 0.4q0.7 0.3 1.1 0.8zm-1.2 2.8q0-0.5-0.1-0.9q-0.1-0.4-0.3-0.8q-0.1-0.1-0.1-0.1q-0.1-0.1-0.2-0.2q0 0-0.1-0.1q-0.1-0.1-0.2-0.1q-0.3-0.2-0.8-0.2q-0.5 0-0.8 0.2q-0.3 0.2-0.5 0.5q-0.2 0.3-0.3 0.8q-0.1 0.4-0.1 0.9q0 0.1 0 0.2q0 0.1 0 0.2q0 0.1 0 0.2q0 0.1 0.1 0.2q0.1 0.5 0.3 0.8q0 0.1 0.1 0.1q0 0.1 0.1 0.2q0.1 0 0.2 0.1q0 0 0.1 0.1q0.4 0.2 0.8 0.2q0.5 0 0.9-0.2q0.3-0.2 0.5-0.5q0.2-0.3 0.3-0.8q0.1-0.4 0.1-0.8zm-9.5-6.6l3.7 10.2h-2.3l-0.7-2.2h-3.8l-0.8 2.2h-2.2l3.8-10.2zm0.1 6.3l-1.3-3.8l-1.3 3.8zm-6.4 0.7q0.2 0.3 0.2 0.8q0 0.8-0.3 1.3q-0.3 0.4-0.7 0.7q-0.5 0.4-1.1 0.5q-0.6 0.1-1.2 0.1q-0.7 0-1.3-0.1q-0.6-0.2-1.1-0.5q-0.4-0.3-0.7-0.8q-0.3-0.5-0.4-1.2h1.9q0 0.3 0.2 0.6q0.1 0.2 0.3 0.4q0.2 0.1 0.5 0.2q0.3 0.1 0.6 0q0 0 0.1 0q0.1 0 0.1 0q0.1 0 0.1 0q0.1 0 0.1 0q0.3-0.1 0.5-0.2q0 0 0.1 0q0 0 0-0.1q0.1 0 0.1-0.1q0 0 0.1 0q0.1-0.2 0.1-0.5q0-0.5-0.6-0.7q-0.6-0.2-1.7-0.4q-0.4-0.1-0.8-0.3q-0.4-0.1-0.8-0.3q-0.3-0.3-0.5-0.6q-0.2-0.3-0.2-0.8q0-0.7 0.3-1.2q0.3-0.4 0.7-0.7q0.5-0.3 1-0.4q0.6-0.1 1.2-0.1q0.6 0 1.2 0.1q0.5 0.2 0.9 0.4q0.5 0.3 0.8 0.7q0.3 0.5 0.3 1.2h-1.9q0-0.6-0.4-0.8q-0.4-0.2-1-0.2q0 0 0 0q-0.1 0-0.1 0q-0.1 0-0.1 0q-0.1 0-0.1 0q-0.2 0-0.4 0.1q-0.1 0.1-0.3 0.2q-0.1 0.1-0.1 0.4q0 0.2 0.2 0.4q0.2 0.2 0.5 0.3q0.4 0.1 0.8 0.2q0.4 0.1 0.8 0.2q0.1 0 0.2 0q0.1 0.1 0.2 0.1q0.1 0 0.2 0.1q0.1 0 0.2 0q0.5 0.2 0.8 0.4q0.3 0.2 0.5 0.6zm-8.3-4.1h1.5v1.3h-1.5v3.7q0 0.5 0.2 0.7q0.2 0.1 0.7 0.1q0 0 0 0q0.1 0 0.1 0q0.1 0 0.1 0q0.1 0 0.1 0q0 0 0.1 0q0 0 0 0q0.1 0 0.1 0q0.1 0 0.1 0v1.5q-0.1 0.1-0.1 0.1q-0.1 0-0.2 0q-0.1 0-0.1 0q-0.1 0-0.2 0q-0.3 0-0.6 0q-0.1 0-0.2 0q-0.1 0-0.2 0q-0.1 0-0.2 0q-0.2 0-0.3 0q-0.4-0.1-0.7-0.3q-0.3-0.2-0.5-0.5q-0.2-0.4-0.2-0.9v-4.4h-1.2v-1.3h1.2v-2.3h2c0 0 0 2.3 0 2.3zm-3.7 5.7q0 0.1 0 0.3q0 0.1 0 0.2q0 0.1 0 0.2q0 0.2 0 0.3q0.1 0.4 0.2 0.7h-2q-0.1-0.2-0.1-0.4q0-0.2-0.1-0.4q-0.1 0.2-0.2 0.3q-0.1 0.1-0.3 0.2q-0.1 0-0.3 0.1q-0.1 0.1-0.3 0.1q-0.6 0.2-1.3 0.2q-0.5 0-1-0.1q-0.1 0-0.2-0.1q-0.1 0-0.2-0.1q-0.1 0-0.2-0.1q-0.1 0-0.2-0.1q-0.1-0.1-0.1-0.1q-0.1-0.1-0.2-0.2q0-0.1-0.1-0.2q-0.1-0.1-0.1-0.2q-0.2-0.4-0.2-1q0-0.6 0.2-1q0.2-0.4 0.6-0.6q0.3-0.3 0.8-0.4q0.4-0.1 0.9-0.2q0.4-0.1 0.9-0.1q0.4-0.1 0.7-0.1q0.4-0.1 0.6-0.3q0.2-0.2 0.2-0.5q0-0.3-0.1-0.5q-0.1-0.2-0.3-0.3q-0.1 0-0.1-0.1q-0.1 0-0.1 0q-0.1 0-0.1 0q-0.1 0-0.1 0q-0.3-0.1-0.5-0.1q-0.6 0-1 0.3q-0.3 0.2-0.4 0.8h-2q0.1-0.7 0.4-1.2q0.1-0.1 0.1-0.2q0.1-0.1 0.2-0.2q0.1-0.1 0.2-0.2q0.2 0 0.3-0.1q0.5-0.3 1.1-0.4q0.6-0.1 1.2-0.1q0.1 0 0.2 0q0.2 0 0.3 0q0.2 0 0.3 0q0.1 0 0.3 0q0.5 0.1 1 0.3q0.5 0.3 0.8 0.7q0.3 0.4 0.3 1.1v3.8q0 0 0 0zm-2-1.2v-0.8q-0.2 0.1-0.4 0.2q-0.1 0.1-0.4 0.1q-0.2 0-0.4 0.1q-0.1 0-0.1 0q-0.1 0-0.2 0q0 0-0.1 0q0 0-0.1 0q-0.2 0.1-0.5 0.2q-0.2 0-0.3 0.2q-0.2 0.1-0.3 0.3q-0.1 0.2-0.1 0.4q0 0.3 0.1 0.5q0.1 0.2 0.3 0.3q0.1 0.1 0.4 0.1q0.2 0.1 0.4 0.1q0.6 0 1-0.2q0.3-0.2 0.4-0.5q0.1-0.1 0.1-0.1q0-0.1 0.1-0.2q0 0 0-0.1q0-0.1 0-0.2q0.1-0.2 0.1-0.4zm-5.9-2.9q0.1 0.5 0.1 1.2v4.6h-2v-4.2q0-0.9-0.3-1.4q-0.2-0.4-1-0.4q-0.8 0-1.1 0.5q-0.4 0.5-0.4 1.6v3.9h-2v-10.2h2v3.8q0.4-0.6 1-0.9q0.6-0.3 1.2-0.3q0.8 0 1.3 0.2q0.5 0.2 0.8 0.6q0.3 0.4 0.4 1zm-9.4-4.4h2.2l-1.5 5.6l-1.2 4.6h-2.2l-1.7-7l-1.7 7h-2.3l-2.6-10.2h2.2l1.6 6.9l1.8-6.9h2l1.8 7z" /><path fill-rule="evenodd" class="s1" d="m29.3 14.5c0 8.1-6.4 14.6-14.4 14.6q-0.9 0-1.8-0.2q-0.9-0.1-1.8-0.3q-0.8-0.2-1.7-0.6q-0.8-0.3-1.6-0.7l-8 2.5l2.6-7.8c-1.3-2.2-2.1-4.7-2.1-7.5c0-8 6.5-14.5 14.4-14.5c8 0 14.4 6.5 14.4 14.5zm-14.4 12.2c6.7 0 12.1-5.4 12.1-12.2c0-6.7-5.4-12.2-12.1-12.2c-6.7 0-12.1 5.5-12.1 12.2c0 2.7 0.9 5.2 2.3 7.2l-1.5 4.5l4.7-1.5c1.9 1.3 4.2 2 6.6 2q0 0 0 0z" /><path class="s2" d="m14.9 2.3c6.7 0 12.1 5.5 12.1 12.2c0 6.8-5.4 12.2-12.1 12.2c-2.4 0-4.7-0.7-6.6-2l-4.7 1.5l1.5-4.5c-1.4-2-2.3-4.5-2.3-7.2c0-6.7 5.5-12.2 12.1-12.2q0 0 0 0z" /><path class="s1" d="m12.6 11.2c0.1 0.1 0.2 0.4 0.1 0.6c-0.1 0.3-0.2 0.4-0.4 0.6c-0.2 0.2-0.4 0.3-0.5 0.6c-0.2 0.2-0.4 0.4-0.2 0.7c0.2 0.4 0.9 1.6 2 2.5c1.3 1.2 2.4 1.6 2.8 1.8c0.3 0.1 0.7 0.1 0.9-0.2c0.3-0.3 0.6-0.8 0.9-1.2c0.3-0.4 0.6-0.4 0.9-0.3c0.3 0.1 2.1 1 2.4 1.2c0.4 0.1 0.6 0.2 0.7 0.4c0.1 0.1 0.1 0.8-0.2 1.7c-0.3 0.8-1.5 1.5-2.4 1.7c-0.6 0.1-1.5 0.2-4.2-0.9c-3.6-1.5-5.9-5.2-6.1-5.4c-0.1-0.2-1.4-1.9-1.4-3.7c0-1.7 0.9-2.6 1.2-3c0.3-0.3 0.8-0.4 1.3-0.4q0 0 0.1 0q0 0 0.1 0q0 0 0.1 0q0 0 0.1 0c0.3 0 0.5 0.1 0.7 0.6c0.3 0.7 1.1 2.5 1.1 2.7z" /></svg>